<svg width="160" height="132" viewBox="0 0 160 132" fill="none" xmlns="http://www.w3.org/2000/svg">
<rect y="0.800781" width="160" height="131" fill="#333333"/>
<path d="M43.9219 60.3594V64.9883C43.9219 65.9883 44.0312 66.6094 44.25 66.8516C44.5469 67.1953 44.9961 67.3672 45.5977 67.3672H46.207V67.8008H39.3984V67.3672H39.9961C40.668 67.3672 41.1484 67.1484 41.4375 66.7109C41.5938 66.4688 41.6719 65.8945 41.6719 64.9883V54.7227C41.6719 53.7227 41.5664 53.1016 41.3555 52.8594C41.0508 52.5156 40.5977 52.3438 39.9961 52.3438H39.3984V51.9102H45.2227C46.6445 51.9102 47.7656 52.0586 48.5859 52.3555C49.4062 52.6445 50.0977 53.1367 50.6602 53.832C51.2227 54.5273 51.5039 55.3516 51.5039 56.3047C51.5039 57.6016 51.0742 58.6562 50.2148 59.4688C49.3633 60.2812 48.1562 60.6875 46.5938 60.6875C46.2109 60.6875 45.7969 60.6602 45.3516 60.6055C44.9062 60.5508 44.4297 60.4688 43.9219 60.3594ZM43.9219 59.6914C44.3359 59.7695 44.7031 59.8281 45.0234 59.8672C45.3438 59.9062 45.6172 59.9258 45.8438 59.9258C46.6562 59.9258 47.3555 59.6133 47.9414 58.9883C48.5352 58.3555 48.832 57.5391 48.832 56.5391C48.832 55.8516 48.6914 55.2148 48.4102 54.6289C48.1289 54.0352 47.7305 53.5938 47.2148 53.3047C46.6992 53.0078 46.1133 52.8594 45.457 52.8594C45.0586 52.8594 44.5469 52.9336 43.9219 53.082V59.6914ZM57.773 59.2812H65.1558V54.7344C65.1558 53.9219 65.105 53.3867 65.0034 53.1289C64.9253 52.9336 64.7612 52.7656 64.5112 52.625C64.1753 52.4375 63.8198 52.3438 63.4448 52.3438H62.8823V51.9102H69.6792V52.3438H69.1167C68.7417 52.3438 68.3862 52.4336 68.0503 52.6133C67.8003 52.7383 67.6284 52.9297 67.5347 53.1875C67.4487 53.4375 67.4058 53.9531 67.4058 54.7344V64.9883C67.4058 65.793 67.4566 66.3242 67.5581 66.582C67.6362 66.7773 67.7964 66.9453 68.0386 67.0859C68.3823 67.2734 68.7417 67.3672 69.1167 67.3672H69.6792V67.8008H62.8823V67.3672H63.4448C64.0933 67.3672 64.5659 67.1758 64.8628 66.793C65.0581 66.543 65.1558 65.9414 65.1558 64.9883V60.1484H57.773V64.9883C57.773 65.793 57.8237 66.3242 57.9253 66.582C58.0034 66.7773 58.1675 66.9453 58.4175 67.0859C58.7534 67.2734 59.1089 67.3672 59.4839 67.3672H60.0581V67.8008H53.2495V67.3672H53.812C54.4683 67.3672 54.9448 67.1758 55.2417 66.793C55.4292 66.543 55.523 65.9414 55.523 64.9883V54.7344C55.523 53.9219 55.4722 53.3867 55.3706 53.1289C55.2925 52.9336 55.1323 52.7656 54.8902 52.625C54.5464 52.4375 54.187 52.3438 53.812 52.3438H53.2495V51.9102H60.0581V52.3438H59.4839C59.1089 52.3438 58.7534 52.4336 58.4175 52.6133C58.1753 52.7383 58.0073 52.9297 57.9136 53.1875C57.8198 53.4375 57.773 53.9531 57.773 54.7344V59.2812ZM79.4405 51.5469C81.503 51.5469 83.2881 52.332 84.7959 53.9023C86.3116 55.4648 87.0694 57.418 87.0694 59.7617C87.0694 62.1758 86.3077 64.1797 84.7842 65.7734C83.2608 67.3672 81.417 68.1641 79.253 68.1641C77.0655 68.1641 75.2256 67.3867 73.7334 65.832C72.2491 64.2773 71.5069 62.2656 71.5069 59.7969C71.5069 57.2734 72.3662 55.2148 74.085 53.6211C75.5772 52.2383 77.3623 51.5469 79.4405 51.5469ZM79.2178 52.4023C77.7959 52.4023 76.6553 52.9297 75.7959 53.9844C74.7256 55.2969 74.1905 57.2188 74.1905 59.75C74.1905 62.3438 74.7452 64.3398 75.8545 65.7383C76.7061 66.8008 77.8311 67.332 79.2295 67.332C80.7217 67.332 81.9522 66.75 82.9209 65.5859C83.8975 64.4219 84.3858 62.5859 84.3858 60.0781C84.3858 57.3594 83.8506 55.332 82.7803 53.9961C81.9209 52.9336 80.7334 52.4023 79.2178 52.4023ZM102.374 51.9102L102.549 55.6367H102.104C102.018 54.9805 101.901 54.5117 101.752 54.2305C101.51 53.7773 101.186 53.4453 100.78 53.2344C100.381 53.0156 99.8541 52.9062 99.1978 52.9062H96.9595V65.0469C96.9595 66.0234 97.065 66.6328 97.2759 66.875C97.5728 67.2031 98.0298 67.3672 98.647 67.3672H99.1978V67.8008H92.4595V67.3672H93.022C93.6939 67.3672 94.1705 67.1641 94.4517 66.7578C94.6236 66.5078 94.7095 65.9375 94.7095 65.0469V52.9062H92.7994C92.0572 52.9062 91.5298 52.9609 91.2173 53.0703C90.8111 53.2188 90.4634 53.5039 90.1744 53.9258C89.8853 54.3477 89.7134 54.918 89.6587 55.6367H89.2134L89.4009 51.9102H102.374ZM111.971 51.5469C114.033 51.5469 115.818 52.332 117.326 53.9023C118.842 55.4648 119.6 57.418 119.6 59.7617C119.6 62.1758 118.838 64.1797 117.315 65.7734C115.791 67.3672 113.947 68.1641 111.783 68.1641C109.596 68.1641 107.756 67.3867 106.264 65.832C104.779 64.2773 104.037 62.2656 104.037 59.7969C104.037 57.2734 104.897 55.2148 106.615 53.6211C108.107 52.2383 109.893 51.5469 111.971 51.5469ZM111.748 52.4023C110.326 52.4023 109.186 52.9297 108.326 53.9844C107.256 55.2969 106.721 57.2188 106.721 59.75C106.721 62.3438 107.275 64.3398 108.385 65.7383C109.236 66.8008 110.361 67.332 111.76 67.332C113.252 67.332 114.482 66.75 115.451 65.5859C116.428 64.4219 116.916 62.5859 116.916 60.0781C116.916 57.3594 116.381 55.332 115.311 53.9961C114.451 52.9336 113.264 52.4023 111.748 52.4023Z" fill="white"/>
</svg>
