<svg width="18" height="17" viewBox="0 0 18 17" fill="none" xmlns="http://www.w3.org/2000/svg">
<path fill-rule="evenodd" clip-rule="evenodd" d="M17.6451 3.89373L15.5377 11.6209C15.4987 11.7642 15.3737 11.8675 15.2256 11.8789L7.02255 12.5098L6.63472 13.2849H14.4963C14.6903 13.2849 14.8476 13.4421 14.8476 13.6361C14.8476 13.8301 14.6903 13.9873 14.4963 13.9873H6.0667C5.94496 13.9873 5.83189 13.9243 5.76788 13.8208C5.70387 13.7172 5.69805 13.5879 5.75249 13.479L6.20558 12.5728L6.09319 12.5814L6.0667 12.5824C5.90541 12.5825 5.76479 12.4727 5.72572 12.3162L3.05514 1.59806C3.01234 1.44679 2.87411 1.34249 2.7169 1.34285H0.446938C0.252957 1.34285 0.0957031 1.1856 0.0957031 0.991616C0.0957031 0.797634 0.252957 0.640381 0.446938 0.640381H2.7169C3.19397 0.641113 3.61137 0.961446 3.73548 1.42209L4.24246 3.4568C4.26489 3.45251 4.28768 3.45032 4.31053 3.45026H17.3062C17.4157 3.45027 17.5188 3.50129 17.5853 3.58824C17.6517 3.67519 17.6738 3.78814 17.6451 3.89373ZM7.82315 8.01648C7.82315 7.8225 7.98041 7.66524 8.17439 7.66524H9.93057V5.90907C9.93057 5.71508 10.0878 5.55783 10.2818 5.55783C10.4758 5.55783 10.633 5.71508 10.633 5.90907V7.66524H12.3892C12.5832 7.66524 12.7405 7.8225 12.7405 8.01648C12.7405 8.21046 12.5832 8.36771 12.3892 8.36771H10.633V10.1239C10.633 10.3179 10.4758 10.4751 10.2818 10.4751C10.0878 10.4751 9.93057 10.3179 9.93057 10.1239V8.36771H8.17439C7.98041 8.36771 7.82315 8.21046 7.82315 8.01648ZM4.41504 4.1528H16.8462L14.9244 11.1974L6.33517 11.8583L4.41504 4.1528ZM7.12059 14.6899C6.73263 14.6899 6.41812 15.0044 6.41812 15.3924C6.41812 15.7803 6.73263 16.0949 7.12059 16.0949C7.50856 16.0949 7.82306 15.7803 7.82306 15.3924C7.82306 15.0044 7.50856 14.6899 7.12059 14.6899ZM12.7408 15.3924C12.7408 15.0044 13.0553 14.6899 13.4432 14.6899C13.8312 14.6899 14.1457 15.0044 14.1457 15.3924C14.1457 15.7803 13.8312 16.0949 13.4432 16.0949C13.0553 16.0949 12.7408 15.7803 12.7408 15.3924Z" fill="white"/>
</svg>
