<svg width="50" height="49" viewBox="0 0 50 49" fill="none" xmlns="http://www.w3.org/2000/svg">
<path fill-rule="evenodd" clip-rule="evenodd" d="M11.8932 10.6411H13.1554C14.201 10.6411 15.0486 11.4718 15.0486 12.4965V37.2347C15.0486 38.2594 14.201 39.0901 13.1554 39.0901H11.8932C10.8476 39.0901 10 38.2594 10 37.2347V12.4965C10 11.4718 10.8476 10.6411 11.8932 10.6411ZM38.3982 10.6411H19.4659C18.4202 10.6411 17.5726 11.4718 17.5726 12.4965V37.2347C17.5726 38.2594 18.4202 39.0901 19.4659 39.0901H38.3982C39.4438 39.0901 40.2914 38.2594 40.2914 37.2347V12.4965C40.2914 11.4718 39.4438 10.6411 38.3982 10.6411ZM39.0299 37.2348C39.0294 37.5762 38.7471 37.8528 38.3988 37.8532H19.4665C19.1181 37.8528 18.8358 37.5762 18.8354 37.2348V12.4965C18.8358 12.1551 19.1181 11.8785 19.4665 11.8781H38.3988C38.7471 11.8785 39.0294 12.1551 39.0299 12.4965V37.2348ZM35.8741 19.2995C36.2226 19.2995 36.5052 19.0226 36.5052 18.6811C36.5052 18.3395 36.2226 18.0626 35.8741 18.0626H28.3012C27.9526 18.0626 27.6701 18.3395 27.6701 18.6811C27.6701 19.0226 27.9526 19.2995 28.3012 19.2995H35.8741ZM26.2232 17.0069C26.4696 17.2484 26.4696 17.6399 26.2232 17.8814L23.6989 20.3552C23.4525 20.5967 23.053 20.5967 22.8066 20.3552L21.5444 19.1183C21.3053 18.8756 21.3087 18.4899 21.5521 18.2513C21.7955 18.0128 22.1891 18.0094 22.4368 18.2438L23.2528 19.0435L25.3309 17.0069C25.5773 16.7655 25.9768 16.7655 26.2232 17.0069ZM35.8741 25.4841C36.2226 25.4841 36.5052 25.2072 36.5052 24.8656C36.5052 24.524 36.2226 24.2472 35.8741 24.2472H28.3012C27.9526 24.2472 27.6701 24.524 27.6701 24.8656C27.6701 25.2072 27.9526 25.4841 28.3012 25.4841H35.8741ZM26.2232 23.1914C26.4696 23.433 26.4696 23.8244 26.2232 24.0659L23.6989 26.5398C23.4525 26.7812 23.053 26.7812 22.8066 26.5398L21.5444 25.3029C21.3053 25.0602 21.3087 24.6745 21.5521 24.4359C21.7955 24.1973 22.1891 24.194 22.4368 24.4284L23.2528 25.228L25.3309 23.1914C25.5773 22.95 25.9768 22.95 26.2232 23.1914ZM35.8741 31.6686C36.2226 31.6686 36.5052 31.3917 36.5052 31.0502C36.5052 30.7086 36.2226 30.4317 35.8741 30.4317H28.3012C27.9526 30.4317 27.6701 30.7086 27.6701 31.0502C27.6701 31.3917 27.9526 31.6686 28.3012 31.6686H35.8741ZM26.2232 29.376C26.4696 29.6175 26.4696 30.009 26.2232 30.2505L23.6989 32.7243C23.4525 32.9657 23.053 32.9657 22.8066 32.7243L21.5444 31.4874C21.3053 31.2447 21.3087 30.859 21.5521 30.6204C21.7955 30.3819 22.1891 30.3785 22.4368 30.6129L23.2528 31.4126L25.3309 29.376C25.5773 29.1346 25.9768 29.1346 26.2232 29.376ZM13.7864 37.2347C13.786 37.5761 13.5037 37.8528 13.1554 37.8532H11.8932C11.5448 37.8528 11.2625 37.5761 11.2621 37.2347V16.8257H13.7864V37.2347ZM11.2621 15.5888H13.7864V12.4965C13.786 12.1551 13.5037 11.8785 13.1554 11.8781H11.8932C11.5448 11.8785 11.2625 12.1551 11.2621 12.4965V15.5888Z" fill="#999999"/>
</svg>
