<svg width="49" height="49" viewBox="0 0 49 49" fill="none" xmlns="http://www.w3.org/2000/svg">
<path d="M20.8757 14.9163L23.1115 12.6828V20.0677C23.1115 21.0043 23.8688 21.7608 24.8064 21.7608C25.7441 21.7608 26.5014 21.0043 26.5014 20.0677V12.7188L28.7372 14.9523C29.0617 15.2765 29.4945 15.4566 29.9272 15.4566C30.36 15.4566 30.7927 15.2765 31.1173 14.9523C31.7664 14.3039 31.7664 13.2231 31.1173 12.5747L25.9965 7.45931C25.3834 6.8469 24.2655 6.8469 23.6164 7.45931L18.4956 12.5747C17.8465 13.2231 17.8465 14.3039 18.4956 14.9523C19.1808 15.6007 20.2266 15.6007 20.8757 14.9163Z" fill="#FF0000"/>
<path d="M38.9433 25.1832C38.4745 24.6789 33.2095 19.0591 33.2095 19.0591C32.5604 18.3747 31.5146 18.3387 30.8294 18.9871C30.1442 19.6355 30.1082 20.6802 30.7573 21.3647L33.8225 24.6068H15.7916L18.8569 21.3647C19.506 20.6802 19.4699 19.6355 18.7847 18.9871C18.0996 18.3747 17.0538 18.3747 16.4047 19.0591C16.4047 19.0591 11.0675 24.7509 10.6708 25.1832C10.2741 25.5795 9.84141 26.408 10.0578 27.1645L13.4476 39.7009C13.7 40.5655 14.4934 41.1779 15.3949 41.1779H34.2192C35.1208 41.1779 35.9141 40.5655 36.1666 39.7009L39.5564 27.1645C39.7727 26.408 39.4121 25.6876 38.9433 25.1832ZM20.0469 35.8463C20.0469 36.4587 19.542 36.9631 18.929 36.9631C18.3159 36.9631 17.8111 36.4587 17.8111 35.8463V29.9744C17.8111 29.362 18.3159 28.8577 18.929 28.8577C19.542 28.8577 20.0469 29.362 20.0469 29.9744V35.8463ZM25.925 35.8463C25.925 36.4587 25.4201 36.9631 24.8071 36.9631C24.194 36.9631 23.6892 36.4587 23.6892 35.8463V29.9744C23.6892 29.362 24.194 28.8577 24.8071 28.8577C25.4201 28.8577 25.925 29.362 25.925 29.9744V35.8463ZM31.8031 35.8463C31.8031 36.4587 31.2982 36.9631 30.6852 36.9631C30.0721 36.9631 29.5672 36.4587 29.5672 35.8463V29.9744C29.5672 29.362 30.0721 28.8577 30.6852 28.8577C31.2982 28.8577 31.8031 29.362 31.8031 29.9744V35.8463Z" fill="#FF0000"/>
</svg>
