<svg width="552" height="178" viewBox="0 0 552 178" fill="none" xmlns="http://www.w3.org/2000/svg">
<rect y="0.976074" width="551.675" height="176.533" fill="#333333"/>
<path d="M231.924 94.1521H232.62C233.084 94.1521 233.428 94.0881 233.652 93.9601C233.892 93.8161 234.012 93.5921 234.012 93.2881V79.4881C234.012 79.1841 233.892 78.9681 233.652 78.8401C233.428 78.6961 233.084 78.6241 232.62 78.6241H231.924V77.9761H240.132C243.588 77.9761 245.316 79.6801 245.316 83.0881C245.316 86.4961 243.588 88.2001 240.132 88.2001H236.364V93.2881C236.364 93.8641 236.828 94.1521 237.756 94.1521H238.476V94.7761H231.924V94.1521ZM239.7 87.2401C240.836 87.2401 241.668 86.8801 242.196 86.1601C242.74 85.4241 243.012 84.4001 243.012 83.0881C243.012 80.3361 241.908 78.9601 239.7 78.9601H236.364V87.2401H239.7ZM263.572 78.6241C262.644 78.6241 262.18 78.9121 262.18 79.4881V93.2881C262.18 93.8641 262.644 94.1521 263.572 94.1521H264.268V94.7761H257.74V94.1521H258.412C259.356 94.1521 259.828 93.8641 259.828 93.2881V86.4241H251.212V93.2881C251.212 93.8641 251.676 94.1521 252.604 94.1521H253.324V94.7761H246.772V94.1521H247.468C247.932 94.1521 248.276 94.0881 248.5 93.9601C248.74 93.8161 248.86 93.5921 248.86 93.2881V79.4881C248.86 79.1841 248.74 78.9681 248.5 78.8401C248.276 78.6961 247.932 78.6241 247.468 78.6241H246.772V77.9761H253.324V78.6241H252.604C251.676 78.6241 251.212 78.9121 251.212 79.4881V85.4401H259.828V79.4881C259.828 78.9121 259.356 78.6241 258.412 78.6241H257.74V77.9761H264.268V78.6241H263.572ZM274.358 95.0161C271.702 95.0161 269.67 94.2641 268.262 92.7601C266.854 91.2401 266.15 89.1121 266.15 86.3761C266.15 83.6561 266.854 81.5361 268.262 80.0161C269.67 78.4961 271.702 77.7361 274.358 77.7361C276.998 77.7361 279.022 78.4961 280.43 80.0161C281.838 81.5361 282.542 83.6561 282.542 86.3761C282.542 89.1121 281.838 91.2401 280.43 92.7601C279.038 94.2641 277.014 95.0161 274.358 95.0161ZM274.334 94.0081C276.254 94.0081 277.702 93.3281 278.678 91.9681C279.67 90.6081 280.166 88.7441 280.166 86.3761C280.166 84.0081 279.67 82.1441 278.678 80.7841C277.702 79.4241 276.254 78.7441 274.334 78.7441C272.43 78.7441 270.982 79.4321 269.99 80.8081C269.014 82.1681 268.526 84.0241 268.526 86.3761C268.526 88.7441 269.014 90.6081 269.99 91.9681C270.982 93.3281 272.43 94.0081 274.334 94.0081ZM288.443 94.1521H289.115C290.059 94.1521 290.531 93.8641 290.531 93.2881V78.9601H287.195C286.555 78.9601 286.107 79.3601 285.851 80.1601C285.595 80.9601 285.459 81.7681 285.443 82.5841H284.795V77.9761H298.619V82.5841H297.971C297.923 81.7361 297.771 80.9201 297.515 80.1361C297.275 79.3521 296.843 78.9601 296.219 78.9601H292.883V93.2881C292.883 93.8641 293.347 94.1521 294.275 94.1521H294.971V94.7761H288.443V94.1521ZM309.092 95.0161C306.436 95.0161 304.404 94.2641 302.996 92.7601C301.588 91.2401 300.884 89.1121 300.884 86.3761C300.884 83.6561 301.588 81.5361 302.996 80.0161C304.404 78.4961 306.436 77.7361 309.092 77.7361C311.732 77.7361 313.756 78.4961 315.164 80.0161C316.572 81.5361 317.276 83.6561 317.276 86.3761C317.276 89.1121 316.572 91.2401 315.164 92.7601C313.772 94.2641 311.748 95.0161 309.092 95.0161ZM309.068 94.0081C310.988 94.0081 312.436 93.3281 313.412 91.9681C314.404 90.6081 314.9 88.7441 314.9 86.3761C314.9 84.0081 314.404 82.1441 313.412 80.7841C312.436 79.4241 310.988 78.7441 309.068 78.7441C307.164 78.7441 305.716 79.4321 304.724 80.8081C303.748 82.1681 303.26 84.0241 303.26 86.3761C303.26 88.7441 303.748 90.6081 304.724 91.9681C305.716 93.3281 307.164 94.0081 309.068 94.0081Z" fill="white"/>
</svg>
