<svg width="49" height="49" viewBox="0 0 49 49" fill="none" xmlns="http://www.w3.org/2000/svg">
<path fill-rule="evenodd" clip-rule="evenodd" d="M36.4438 12.25H9.49375C8.47893 12.25 7.65625 13.0727 7.65625 14.0875V34.9125C7.65625 35.9273 8.47893 36.75 9.49375 36.75H36.4438C37.4586 36.75 38.2812 35.9273 38.2812 34.9125V14.0875C38.2812 13.0727 37.4586 12.25 36.4438 12.25ZM37.0562 34.9125C37.0562 35.2508 36.782 35.525 36.4437 35.525H9.49371C9.15543 35.525 8.88121 35.2508 8.88121 34.9125V14.0875C8.88121 13.7493 9.15543 13.475 9.49371 13.475H36.4437C36.782 13.475 37.0562 13.7493 37.0562 14.0875V34.9125ZM15.6186 19.6C15.9569 19.6 16.2311 19.3258 16.2311 18.9875C16.2311 18.6492 15.9569 18.375 15.6186 18.375H11.9436C11.6053 18.375 11.3311 18.6492 11.3311 18.9875C11.3311 19.3258 11.6053 19.6 11.9436 19.6H15.6186ZM22.9687 19.6H18.0687C17.7304 19.6 17.4562 19.3258 17.4562 18.9875C17.4562 18.6492 17.7304 18.375 18.0687 18.375H22.9687C23.3069 18.375 23.5812 18.6492 23.5812 18.9875C23.5812 19.3258 23.3069 19.6 22.9687 19.6ZM27.869 25.2758C28.5863 24.7711 29.4419 24.5002 30.319 24.5C32.1657 24.499 33.8054 25.6812 34.3878 27.4337C34.9703 29.1862 34.3645 31.1147 32.8845 32.2193C31.4045 33.3239 29.3834 33.3561 27.869 32.2992C26.0871 33.5474 23.6528 33.2631 22.2065 31.638C20.7601 30.0129 20.7601 27.5621 22.2065 25.937C23.6528 24.3119 26.0871 24.0277 27.869 25.2758ZM25.4188 31.85C23.7274 31.85 22.3563 30.4789 22.3563 28.7875C22.3563 27.0961 23.7274 25.725 25.4188 25.725C27.1102 25.725 28.4813 27.0961 28.4813 28.7875C28.4793 30.4781 27.1093 31.848 25.4188 31.85ZM28.7801 31.4199C29.2453 31.6983 29.7767 31.8469 30.3188 31.85C32.0102 31.85 33.3813 30.4789 33.3813 28.7875C33.3813 27.0961 32.0102 25.725 30.3188 25.725C29.7767 25.7281 29.2453 25.8766 28.7801 26.155C30.0151 27.6927 30.0151 29.8822 28.7801 31.4199Z" fill="#999999"/>
<circle cx="35.2188" cy="15.3125" r="6.125" fill="#999999" stroke="white"/>
<path d="M33.1768 15.8228L35.2184 17.3541L38.2809 13.2708" stroke="white" stroke-linecap="round" stroke-linejoin="round"/>
</svg>
