<svg width="39" height="41" viewBox="0 0 39 41" fill="none" xmlns="http://www.w3.org/2000/svg">
<rect y="0.098999" width="39" height="40" fill="#777777"/>
<circle cx="20" cy="20.099" r="12" fill="#333333"/>
<path fill-rule="evenodd" clip-rule="evenodd" d="M25.9902 17.5935L24.3102 23.7535C24.2791 23.8678 24.1794 23.9501 24.0614 23.9592L17.522 24.4622L17.2128 25.08H23.48C23.6347 25.08 23.76 25.2054 23.76 25.36C23.76 25.5147 23.6347 25.64 23.48 25.64H16.76C16.663 25.64 16.5728 25.5898 16.5218 25.5072C16.4708 25.4247 16.4661 25.3216 16.5095 25.2348L16.8707 24.5124L16.7811 24.5192L16.76 24.52C16.6314 24.5201 16.5193 24.4326 16.4882 24.3078L14.3592 15.7634C14.3251 15.6429 14.2149 15.5597 14.0896 15.56H12.28C12.1254 15.56 12 15.4346 12 15.28C12 15.1254 12.1254 15 12.28 15H14.0896C14.4699 15.0006 14.8026 15.2559 14.9016 15.6232L15.3057 17.2452C15.3236 17.2418 15.3418 17.2401 15.36 17.24H25.72C25.8073 17.24 25.8895 17.2807 25.9425 17.35C25.9954 17.4193 26.0131 17.5094 25.9902 17.5935ZM18.1603 20.8802C18.1603 20.7255 18.2857 20.6002 18.4403 20.6002H19.8403V19.2002C19.8403 19.0455 19.9657 18.9202 20.1203 18.9202C20.2749 18.9202 20.4003 19.0455 20.4003 19.2002V20.6002H21.8003C21.955 20.6002 22.0803 20.7255 22.0803 20.8802C22.0803 21.0348 21.955 21.1602 21.8003 21.1602H20.4003V22.5602C20.4003 22.7148 20.2749 22.8402 20.1203 22.8402C19.9657 22.8402 19.8403 22.7148 19.8403 22.5602V21.1602H18.4403C18.2857 21.1602 18.1603 21.0348 18.1603 20.8802ZM15.4433 17.8001H25.3533L23.8213 23.4159L16.974 23.9428L15.4433 17.8001ZM17.6 26.2001C17.2908 26.2001 17.04 26.4509 17.04 26.7601C17.04 27.0694 17.2908 27.3201 17.6 27.3201C17.9093 27.3201 18.16 27.0694 18.16 26.7601C18.16 26.4509 17.9093 26.2001 17.6 26.2001ZM22.0805 26.7601C22.0805 26.4509 22.3312 26.2001 22.6405 26.2001C22.9497 26.2001 23.2005 26.4509 23.2005 26.7601C23.2005 27.0694 22.9497 27.3201 22.6405 27.3201C22.3312 27.3201 22.0805 27.0694 22.0805 26.7601Z" fill="white"/>
</svg>
