<svg width="12" height="12" viewBox="0 0 12 12" fill="none" xmlns="http://www.w3.org/2000/svg">
<path fill-rule="evenodd" clip-rule="evenodd" d="M8.09217 8.00187L11.6463 11.5562C11.7386 11.6516 11.7373 11.8034 11.6434 11.8973C11.5495 11.9912 11.3977 11.9925 11.3022 11.9003L7.74806 8.34597C5.87789 10.0296 3.00681 9.91661 1.27472 8.09125C-0.457362 6.26589 -0.419694 3.39287 1.35965 1.61354C3.139 -0.165783 6.01206 -0.20345 7.83744 1.52861C9.66282 3.26068 9.7758 6.13173 8.09217 8.00187ZM0.523279 4.91442C0.523279 7.19924 2.37551 9.05144 4.66035 9.05144C6.94408 9.04876 8.79474 7.19812 8.79743 4.91442C8.79743 2.62961 6.94519 0.7774 4.66035 0.7774C2.37551 0.7774 0.523279 2.62961 0.523279 4.91442Z" fill="white"/>
</svg>
