<svg width="15" height="19" viewBox="0 0 15 19" fill="none" xmlns="http://www.w3.org/2000/svg">
<path fill-rule="evenodd" clip-rule="evenodd" d="M12.0782 4.44366C12.5793 6.62349 11.5084 8.8605 9.49619 9.83718C12.5254 10.7627 14.596 13.5565 14.6002 16.7239V17.9239C14.6002 18.1448 14.4211 18.3239 14.2002 18.3239C13.9793 18.3239 13.8002 18.1448 13.8002 17.9239V16.7239C13.8002 13.1893 10.9348 10.3239 7.4002 10.3239C3.86557 10.3239 1.0002 13.1893 1.0002 16.7239V17.9239C1.0002 18.1448 0.821109 18.3239 0.600195 18.3239C0.379281 18.3239 0.200195 18.1448 0.200195 17.9239V16.7239C0.204421 13.5565 2.27503 10.7627 5.30419 9.83718C3.29202 8.8605 2.22112 6.62349 2.7222 4.44366C3.22328 2.26383 5.16351 0.718994 7.4002 0.718994C9.63688 0.718994 11.5771 2.26383 12.0782 4.44366ZM7.40018 1.52387C5.19104 1.52387 3.40017 3.31473 3.40017 5.52387C3.40264 7.73199 5.19206 9.5214 7.40018 9.52387C9.60931 9.52387 11.4002 7.73301 11.4002 5.52387C11.4002 3.31473 9.60931 1.52387 7.40018 1.52387Z" fill="white"/>
</svg>
